<svg width="20" height="20" viewBox="0 0 20 20" fill="none" xmlns="http://www.w3.org/2000/svg">
<g id="Huge-icon/business/outline/chart-arrow-up 01" clip-path="url(#clip0_587_1074)">
<path id="Vector" d="M15.8346 1.66699H17.5013C17.9615 1.66699 18.3346 2.04009 18.3346 2.50033V4.16699M17.5013 2.50033C10.8834 7.82646 7.45307 9.26111 1.66797 10.0003M15.0013 8.33366V16.667C15.0013 17.5875 15.7475 18.3337 16.668 18.3337C17.5884 18.3337 18.3346 17.5875 18.3346 16.667V8.33366C18.3346 7.41318 17.5884 6.66699 16.668 6.66699C15.7475 6.66699 15.0013 7.41318 15.0013 8.33366ZM1.66797 15.0003L1.66797 16.667C1.66797 17.5875 2.41416 18.3337 3.33464 18.3337C4.25511 18.3337 5.0013 17.5875 5.0013 16.667L5.0013 15.0003C5.0013 14.0799 4.25511 13.3337 3.33464 13.3337C2.41416 13.3337 1.66797 14.0799 1.66797 15.0003ZM8.33464 11.667V16.667C8.33464 17.5875 9.08083 18.3337 10.0013 18.3337C10.9218 18.3337 11.668 17.5875 11.668 16.667V11.667C11.668 10.7465 10.9218 10.0003 10.0013 10.0003C9.08083 10.0003 8.33464 10.7465 8.33464 11.667Z" stroke="#A0AEC0" stroke-width="1.5" stroke-linecap="round" stroke-linejoin="round"/>
</g>
<defs>
<clipPath id="clip0_587_1074">
<rect width="20" height="20" fill="white"/>
</clipPath>
</defs>
</svg>
