<svg width="20" height="20" viewBox="0 0 20 20" fill="none" xmlns="http://www.w3.org/2000/svg">
<g id="Huge-icon/business/outline/briefcase 01" clip-path="url(#clip0_350_1348)">
<path id="Vector" d="M18.3346 8.33366V15.0003C18.3346 16.8413 16.8423 18.3337 15.0013 18.3337H5.0013C3.16035 18.3337 1.66797 16.8413 1.66797 15.0003V8.33366M18.3346 8.33366C18.3346 6.49271 16.8423 5.00033 15.0013 5.00033H5.0013C3.16035 5.00033 1.66797 6.49271 1.66797 8.33366M18.3346 8.33366C18.3346 8.33366 15.6991 10.6375 10.0013 10.4846C4.30348 10.3316 1.66797 8.33366 1.66797 8.33366M6.66797 5.00033V4.16699C6.66797 2.78628 7.78726 1.66699 9.16797 1.66699H10.8346C12.2153 1.66699 13.3346 2.78628 13.3346 4.16699V5.00033M6.66797 8.8976V11.3976M13.3346 8.8976V11.3976" stroke="#A0AEC0" stroke-width="1.5" stroke-linecap="round"/>
</g>
<defs>
<clipPath id="clip0_350_1348">
<rect width="20" height="20" fill="white"/>
</clipPath>
</defs>
</svg>
