<svg width="20" height="20" viewBox="0 0 20 20" fill="none" xmlns="http://www.w3.org/2000/svg">
<path d="M10.8346 16.6663H5.66797C3.45883 16.6663 1.66797 14.8755 1.66797 12.6663V7.333C1.66797 5.12387 3.45883 3.33301 5.66797 3.33301H14.3346C16.5438 3.33301 18.3346 5.12387 18.3346 7.33301V10.833" stroke="#A0AEC0" stroke-width="1.5" stroke-linecap="round"/>
<circle cx="0.833333" cy="0.833333" r="0.833333" transform="matrix(1 0 0 -1 4.16797 7.5)" fill="#A0AEC0"/>
<circle cx="1.66667" cy="1.66667" r="1.66667" transform="matrix(1 0 0 -1 8.33203 11.667)" stroke="#A0AEC0" stroke-width="1.5"/>
<path d="M17.0105 16.667L18.088 15.5896C18.4134 15.2641 18.4134 14.7365 18.088 14.4111L17.0105 13.3337M13.332 15.0003L17.8439 15.0003" stroke="#A0AEC0" stroke-width="1.5" stroke-linecap="round"/>
</svg>
