<svg width="20" height="20" viewBox="0 0 20 20" fill="none" xmlns="http://www.w3.org/2000/svg">
<path d="M8.33407 11.6667H4.36413C3.12516 11.6667 2.31933 10.3628 2.87342 9.25464L5.79008 3.42131C6.0724 2.85667 6.64951 2.5 7.2808 2.5H10.6289C10.7652 2.5 10.9009 2.51671 11.0331 2.54976L14.1674 3.33333M8.33407 11.6667V15.8333C8.33407 16.7538 9.08026 17.5 10.0007 17.5H10.0803C10.4966 17.5 10.8341 17.1625 10.8341 16.7462C10.8341 16.151 11.0103 15.569 11.3405 15.0738L14.1674 10.8333V3.33333M8.33407 11.6667H10.0007M14.1674 3.33333H15.8341C16.7545 3.33333 17.5007 4.07952 17.5007 5V10C17.5007 10.9205 16.7545 11.6667 15.8341 11.6667H13.7507" stroke="#A0AEC0" stroke-width="1.5" stroke-linecap="round" stroke-linejoin="round"/>
</svg>
