<svg width="20" height="20" viewBox="0 0 20 20" fill="none" xmlns="http://www.w3.org/2000/svg">
<path fill-rule="evenodd" clip-rule="evenodd" d="M9.9974 2.29199C5.7402 2.29199 2.28906 5.74313 2.28906 10.0003C2.28906 14.2575 5.7402 17.7087 9.9974 17.7087C14.2546 17.7087 17.7057 14.2575 17.7057 10.0003C17.7057 5.74313 14.2546 2.29199 9.9974 2.29199ZM1.03906 10.0003C1.03906 5.05277 5.04984 1.04199 9.9974 1.04199C14.9449 1.04199 18.9557 5.05277 18.9557 10.0003C18.9557 14.9479 14.9449 18.9587 9.9974 18.9587C5.04984 18.9587 1.03906 14.9479 1.03906 10.0003Z" fill="#A0AEC0"/>
<path fill-rule="evenodd" clip-rule="evenodd" d="M6.03906 2.50033C6.03906 2.15515 6.31888 1.87533 6.66406 1.87533H7.4974C7.69835 1.87533 7.88706 1.97196 8.00452 2.13501C8.12198 2.29807 8.15387 2.50766 8.09022 2.69827C6.50812 7.43646 6.50812 12.5642 8.09022 17.3024C8.15387 17.493 8.12198 17.7026 8.00452 17.8656C7.88706 18.0287 7.69835 18.1253 7.4974 18.1253H6.66406C6.31888 18.1253 6.03906 17.8455 6.03906 17.5003C6.03906 17.1612 6.30918 16.8851 6.64601 16.8756C5.32286 12.3888 5.32286 7.6119 6.64601 3.12507C6.30918 3.11551 6.03906 2.83946 6.03906 2.50033Z" fill="#A0AEC0"/>
<path fill-rule="evenodd" clip-rule="evenodd" d="M12.2994 1.9075C12.6269 1.79818 12.9809 1.97497 13.0902 2.30238C14.7581 7.29752 14.7581 12.7031 13.0902 17.6983C12.9809 18.0257 12.6269 18.2025 12.2994 18.0932C11.972 17.9838 11.7952 17.6298 11.9046 17.3024C13.4867 12.5642 13.4867 7.43646 11.9046 2.69827C11.7952 2.37086 11.972 2.01682 12.2994 1.9075Z" fill="#A0AEC0"/>
<path fill-rule="evenodd" clip-rule="evenodd" d="M2.13208 11.9932C2.29514 11.8757 2.50473 11.8439 2.69534 11.9075C7.43353 13.4896 12.5613 13.4896 17.2994 11.9075C17.4901 11.8439 17.6997 11.8757 17.8627 11.9932C18.0258 12.1107 18.1224 12.2994 18.1224 12.5003V13.3337C18.1224 13.6788 17.8426 13.9587 17.4974 13.9587C17.1583 13.9587 16.8822 13.6885 16.8727 13.3517C12.3858 14.6749 7.60897 14.6749 3.12214 13.3517C3.11258 13.6885 2.83653 13.9587 2.4974 13.9587C2.15222 13.9587 1.8724 13.6788 1.8724 13.3337V12.5003C1.8724 12.2994 1.96903 12.1107 2.13208 11.9932Z" fill="#A0AEC0"/>
<path fill-rule="evenodd" clip-rule="evenodd" d="M17.2994 8.09315C12.5613 6.51105 7.43353 6.51105 2.69534 8.09315C2.36793 8.20247 2.01389 8.02568 1.90457 7.69827C1.79525 7.37086 1.97204 7.01682 2.29945 6.9075C7.29459 5.2396 12.7002 5.2396 17.6953 6.9075C18.0228 7.01682 18.1995 7.37086 18.0902 7.69827C17.9809 8.02568 17.6269 8.20247 17.2994 8.09315Z" fill="#A0AEC0"/>
</svg>
