<svg width="20" height="20" viewBox="0 0 20 20" fill="none" xmlns="http://www.w3.org/2000/svg">
<path d="M11.8001 13.2736L13.5892 16.3725C13.9344 16.9704 13.7296 17.7349 13.1317 18.08C12.5338 18.4252 11.7693 18.2204 11.4242 17.6225L9.21288 13.7924M16.2119 4.02521L16.517 2.88686M17.8786 6.91197L19.017 7.217M6.74841 14.3003L15.5973 12.2741C16.6904 12.0238 17.2294 10.7873 16.6687 9.81615L13.092 3.62106C12.5313 2.64995 11.1909 2.49845 10.4276 3.31992L4.24841 9.97021L6.74841 14.3003ZM4.45676 10.331L6.5401 13.9395C6.88527 14.5373 6.68043 15.3018 6.08257 15.647C5.4847 15.9922 4.72021 15.7873 4.37503 15.1895L2.2917 11.581C1.94652 10.9832 2.15137 10.2187 2.74923 9.8735C3.3471 9.52832 4.11159 9.73317 4.45676 10.331Z" stroke="#A0AEC0" stroke-width="1.5" stroke-linecap="round" stroke-linejoin="round"/>
</svg>
