<svg width="48" height="48" viewBox="0 0 48 48" fill="none" xmlns="http://www.w3.org/2000/svg">
<rect width="48" height="48" rx="24" fill="#EFF2FE"/>
<ellipse cx="24" cy="28.5" rx="6" ry="2.5" stroke="#5978EC" stroke-width="1.5" stroke-linejoin="round"/>
<circle cx="24" cy="20" r="3" stroke="#5978EC" stroke-width="1.5" stroke-linejoin="round"/>
<path fill-rule="evenodd" clip-rule="evenodd" d="M18.4455 25.2617C17.2069 25.3133 16.0691 25.5364 15.1859 25.8897C14.6812 26.0915 14.2225 26.3507 13.8776 26.6768C13.5312 27.0045 13.25 27.4514 13.25 28.0002C13.25 28.5491 13.5312 28.996 13.8776 29.3236C14.2225 29.6498 14.6812 29.9089 15.1859 30.1108C15.6857 30.3107 16.267 30.469 16.902 30.578C16.4083 30.0455 16.0985 29.4506 16.0199 28.8197C15.9234 28.7872 15.831 28.7533 15.743 28.7181C15.3429 28.558 15.0694 28.3862 14.9083 28.2338C14.7498 28.084 14.75 28.0048 14.75 28.0003L14.75 28.0002L14.75 28.0002C14.75 27.9956 14.7498 27.9165 14.9083 27.7667C15.0694 27.6142 15.3429 27.4424 15.743 27.2824C15.946 27.2012 16.172 27.1268 16.4179 27.0611C16.8316 26.3712 17.5345 25.7562 18.4455 25.2617Z" fill="#5978EC"/>
<path fill-rule="evenodd" clip-rule="evenodd" d="M31.9803 28.8197C31.9016 29.4506 31.5918 30.0455 31.0982 30.578C31.7331 30.469 32.3144 30.3107 32.8142 30.1108C33.3189 29.9089 33.7777 29.6498 34.1226 29.3236C34.469 28.996 34.7502 28.5491 34.7502 28.0002C34.7502 27.4514 34.469 27.0045 34.1226 26.6768C33.7777 26.3507 33.3189 26.0916 32.8142 25.8897C31.931 25.5364 30.7933 25.3133 29.5547 25.2617C30.4657 25.7562 31.1686 26.3712 31.5823 27.0611C31.8281 27.1268 32.0542 27.2012 32.2571 27.2824C32.6573 27.4424 32.9307 27.6142 33.0919 27.7667C33.2504 27.9165 33.2502 27.9956 33.2502 28.0002V28.0002V28.0003C33.2502 28.0048 33.2504 28.084 33.0919 28.2338C32.9307 28.3862 32.6573 28.558 32.2571 28.7181C32.1691 28.7533 32.0767 28.7872 31.9803 28.8197Z" fill="#5978EC"/>
<path fill-rule="evenodd" clip-rule="evenodd" d="M28.5137 22.1522C28.2938 22.6126 28.0056 23.0341 27.6621 23.4036C28.0579 23.6243 28.5139 23.75 28.9993 23.75C30.5181 23.75 31.7493 22.5188 31.7493 21C31.7493 19.4812 30.5181 18.25 28.9993 18.25C28.8951 18.25 28.7921 18.2558 28.6909 18.2671C28.8629 18.7327 28.9676 19.231 28.9932 19.75C28.9952 19.75 28.9973 19.75 28.9993 19.75C29.6897 19.75 30.2493 20.3096 30.2493 21C30.2493 21.6904 29.6897 22.25 28.9993 22.25C28.8271 22.25 28.663 22.2152 28.5137 22.1522Z" fill="#5978EC"/>
<path fill-rule="evenodd" clip-rule="evenodd" d="M19.3084 18.2671C19.2072 18.2558 19.1043 18.25 19 18.25C17.4812 18.25 16.25 19.4812 16.25 21C16.25 22.5188 17.4812 23.75 19 23.75C19.4854 23.75 19.9414 23.6243 20.3372 23.4036C19.9937 23.0341 19.7055 22.6126 19.4856 22.1522C19.3363 22.2152 19.1722 22.25 19 22.25C18.3096 22.25 17.75 21.6904 17.75 21C17.75 20.3096 18.3096 19.75 19 19.75C19.002 19.75 19.0041 19.75 19.0061 19.75C19.0317 19.231 19.1364 18.7327 19.3084 18.2671Z" fill="#5978EC"/>
</svg>
