<svg width="52" height="52" viewBox="0 0 52 52" fill="none" xmlns="http://www.w3.org/2000/svg">
<path fill-rule="evenodd" clip-rule="evenodd" d="M46.6491 14.0175C47.2837 14.6521 47.2837 15.681 46.6491 16.3156L29.3157 33.6489C28.6811 34.2835 27.6522 34.2835 27.0176 33.6489L19.5 26.1313L7.64905 37.9822C7.01445 38.6168 5.98555 38.6168 5.35095 37.9822C4.71635 37.3476 4.71635 36.3187 5.35095 35.6841L18.351 22.6841C18.9856 22.0495 20.0144 22.0495 20.649 22.6841L28.1667 30.2017L44.351 14.0175C44.9856 13.3829 46.0144 13.3829 46.6491 14.0175Z" fill="#FF4C4D"/>
<path fill-rule="evenodd" clip-rule="evenodd" d="M28.7083 15.1665C28.7083 14.269 29.4359 13.5415 30.3333 13.5415H45.5C46.3975 13.5415 47.125 14.269 47.125 15.1665V30.3332C47.125 31.2306 46.3975 31.9582 45.5 31.9582C44.6025 31.9582 43.875 31.2306 43.875 30.3332V16.7915H30.3333C29.4359 16.7915 28.7083 16.064 28.7083 15.1665Z" fill="#FF4C4D"/>
</svg>
