<svg width="20" height="20" viewBox="0 0 20 20" fill="none" xmlns="http://www.w3.org/2000/svg">
<g clip-path="url(#clip0_423_38202)">
<path d="M18.3334 8.33317V14.9998C18.3334 16.8408 16.841 18.3332 15.0001 18.3332H5.00008C3.15913 18.3332 1.66675 16.8408 1.66675 14.9998V8.33317M18.3334 8.33317C18.3334 6.49222 16.841 4.99984 15.0001 4.99984H5.00008C3.15913 4.99984 1.66675 6.49222 1.66675 8.33317M18.3334 8.33317C18.3334 8.33317 15.6979 10.637 10.0001 10.4841C4.30226 10.3311 1.66675 8.33317 1.66675 8.33317M6.66675 4.99984V4.1665C6.66675 2.78579 7.78604 1.6665 9.16675 1.6665H10.8334C12.2141 1.6665 13.3334 2.78579 13.3334 4.1665V4.99984M6.66675 8.89711V11.3971M13.3334 8.89711V11.3971" stroke="#A0AEC0" stroke-width="1.5" stroke-linecap="round"/>
</g>
<defs>
<clipPath id="clip0_423_38202">
<rect width="20" height="20" fill="white"/>
</clipPath>
</defs>
</svg>
