<svg width="20" height="20" viewBox="0 0 20 20" fill="none" xmlns="http://www.w3.org/2000/svg">
<path fill-rule="evenodd" clip-rule="evenodd" d="M4.16634 3.95801C4.05128 3.95801 3.95801 4.05128 3.95801 4.16634V7.49967C3.95801 7.61473 4.05128 7.70801 4.16634 7.70801H7.49967C7.61473 7.70801 7.70801 7.61473 7.70801 7.49967V4.16634C7.70801 4.05128 7.61473 3.95801 7.49967 3.95801H4.16634ZM2.70801 4.16634C2.70801 3.36093 3.36093 2.70801 4.16634 2.70801H7.49967C8.30509 2.70801 8.95801 3.36093 8.95801 4.16634V7.49967C8.95801 8.30509 8.30509 8.95801 7.49967 8.95801H4.16634C3.36093 8.95801 2.70801 8.30509 2.70801 7.49967V4.16634Z" fill="#A0AEC0"/>
<path fill-rule="evenodd" clip-rule="evenodd" d="M12.4997 3.95801C12.3846 3.95801 12.2913 4.05128 12.2913 4.16634V7.49967C12.2913 7.61473 12.3846 7.70801 12.4997 7.70801H15.833C15.9481 7.70801 16.0413 7.61473 16.0413 7.49967V4.16634C16.0413 4.05128 15.9481 3.95801 15.833 3.95801H12.4997ZM11.0413 4.16634C11.0413 3.36093 11.6943 2.70801 12.4997 2.70801H15.833C16.6384 2.70801 17.2913 3.36093 17.2913 4.16634V7.49967C17.2913 8.30509 16.6384 8.95801 15.833 8.95801H12.4997C11.6943 8.95801 11.0413 8.30509 11.0413 7.49967V4.16634Z" fill="#A0AEC0"/>
<path fill-rule="evenodd" clip-rule="evenodd" d="M4.16634 12.2913C4.05128 12.2913 3.95801 12.3846 3.95801 12.4997V15.833C3.95801 15.9481 4.05128 16.0413 4.16634 16.0413H7.49967C7.61473 16.0413 7.70801 15.9481 7.70801 15.833V12.4997C7.70801 12.3846 7.61473 12.2913 7.49967 12.2913H4.16634ZM2.70801 12.4997C2.70801 11.6943 3.36093 11.0413 4.16634 11.0413H7.49967C8.30509 11.0413 8.95801 11.6943 8.95801 12.4997V15.833C8.95801 16.6384 8.30509 17.2913 7.49967 17.2913H4.16634C3.36093 17.2913 2.70801 16.6384 2.70801 15.833V12.4997Z" fill="#A0AEC0"/>
<path fill-rule="evenodd" clip-rule="evenodd" d="M12.4997 12.2913C12.3846 12.2913 12.2913 12.3846 12.2913 12.4997V15.833C12.2913 15.9481 12.3846 16.0413 12.4997 16.0413H15.833C15.9481 16.0413 16.0413 15.9481 16.0413 15.833V12.4997C16.0413 12.3846 15.9481 12.2913 15.833 12.2913H12.4997ZM11.0413 12.4997C11.0413 11.6943 11.6943 11.0413 12.4997 11.0413H15.833C16.6384 11.0413 17.2913 11.6943 17.2913 12.4997V15.833C17.2913 16.6384 16.6384 17.2913 15.833 17.2913H12.4997C11.6943 17.2913 11.0413 16.6384 11.0413 15.833V12.4997Z" fill="#A0AEC0"/>
</svg>
