<svg width="20" height="20" viewBox="0 0 20 20" fill="none" xmlns="http://www.w3.org/2000/svg">
<g clip-path="url(#clip0_423_38214)">
<path d="M15.8334 1.6665H17.5001C17.9603 1.6665 18.3334 2.0396 18.3334 2.49984V4.1665M17.5001 2.49984C10.8821 7.82597 7.45185 9.26062 1.66675 9.99984M15.0001 8.33317V16.6665C15.0001 17.587 15.7463 18.3332 16.6667 18.3332C17.5872 18.3332 18.3334 17.587 18.3334 16.6665V8.33317C18.3334 7.4127 17.5872 6.6665 16.6667 6.6665C15.7463 6.6665 15.0001 7.4127 15.0001 8.33317ZM1.66675 14.9998L1.66675 16.6665C1.66675 17.587 2.41294 18.3332 3.33341 18.3332C4.25389 18.3332 5.00008 17.587 5.00008 16.6665L5.00008 14.9998C5.00008 14.0794 4.25389 13.3332 3.33341 13.3332C2.41294 13.3332 1.66675 14.0794 1.66675 14.9998ZM8.33341 11.6665V16.6665C8.33341 17.587 9.07961 18.3332 10.0001 18.3332C10.9206 18.3332 11.6667 17.587 11.6667 16.6665V11.6665C11.6667 10.746 10.9206 9.99984 10.0001 9.99984C9.07961 9.99984 8.33341 10.746 8.33341 11.6665Z" stroke="#A0AEC0" stroke-width="1.5" stroke-linecap="round" stroke-linejoin="round"/>
</g>
<defs>
<clipPath id="clip0_423_38214">
<rect width="20" height="20" fill="white"/>
</clipPath>
</defs>
</svg>
