<svg width="20" height="20" viewBox="0 0 20 20" fill="none" xmlns="http://www.w3.org/2000/svg">
<path fill-rule="evenodd" clip-rule="evenodd" d="M9.99984 2.2915C5.74264 2.2915 2.2915 5.74264 2.2915 9.99984C2.2915 14.257 5.74264 17.7082 9.99984 17.7082C14.257 17.7082 17.7082 14.257 17.7082 9.99984C17.7082 5.74264 14.257 2.2915 9.99984 2.2915ZM1.0415 9.99984C1.0415 5.05229 5.05229 1.0415 9.99984 1.0415C14.9474 1.0415 18.9582 5.05229 18.9582 9.99984C18.9582 14.9474 14.9474 18.9582 9.99984 18.9582C5.05229 18.9582 1.0415 14.9474 1.0415 9.99984Z" fill="#A0AEC0"/>
<path fill-rule="evenodd" clip-rule="evenodd" d="M6.0415 2.49984C6.0415 2.15466 6.32133 1.87484 6.6665 1.87484H7.49984C7.7008 1.87484 7.8895 1.97147 8.00696 2.13452C8.12442 2.29758 8.15631 2.50717 8.09266 2.69778C6.51056 7.43597 6.51056 12.5637 8.09266 17.3019C8.15631 17.4925 8.12442 17.7021 8.00696 17.8652C7.8895 18.0282 7.7008 18.1248 7.49984 18.1248H6.6665C6.32133 18.1248 6.0415 17.845 6.0415 17.4998C6.0415 17.1607 6.31162 16.8847 6.64845 16.8751C5.3253 12.3883 5.3253 7.61141 6.64845 3.12458C6.31162 3.11503 6.0415 2.83898 6.0415 2.49984Z" fill="#A0AEC0"/>
<path fill-rule="evenodd" clip-rule="evenodd" d="M12.3019 1.90701C12.6293 1.79769 12.9833 1.97448 13.0927 2.30189C14.7606 7.29704 14.7606 12.7026 13.0927 17.6978C12.9833 18.0252 12.6293 18.202 12.3019 18.0927C11.9745 17.9833 11.7977 17.6293 11.907 17.3019C13.4891 12.5637 13.4891 7.43597 11.907 2.69778C11.7977 2.37038 11.9745 2.01633 12.3019 1.90701Z" fill="#A0AEC0"/>
<path fill-rule="evenodd" clip-rule="evenodd" d="M2.13452 11.9927C2.29758 11.8753 2.50717 11.8434 2.69778 11.907C7.43597 13.4891 12.5637 13.4891 17.3019 11.907C17.4925 11.8434 17.7021 11.8753 17.8652 11.9927C18.0282 12.1102 18.1248 12.2989 18.1248 12.4998V13.3332C18.1248 13.6783 17.845 13.9582 17.4998 13.9582C17.1607 13.9582 16.8847 13.6881 16.8751 13.3512C12.3883 14.6744 7.61141 14.6744 3.12458 13.3512C3.11503 13.6881 2.83898 13.9582 2.49984 13.9582C2.15466 13.9582 1.87484 13.6783 1.87484 13.3332V12.4998C1.87484 12.2989 1.97147 12.1102 2.13452 11.9927Z" fill="#A0AEC0"/>
<path fill-rule="evenodd" clip-rule="evenodd" d="M17.3019 8.09266C12.5637 6.51056 7.43597 6.51056 2.69778 8.09266C2.37038 8.20199 2.01633 8.02519 1.90701 7.69778C1.79769 7.37038 1.97448 7.01634 2.30189 6.90701C7.29704 5.23911 12.7026 5.23911 17.6978 6.90701C18.0252 7.01634 18.202 7.37038 18.0927 7.69778C17.9833 8.02519 17.6293 8.20199 17.3019 8.09266Z" fill="#A0AEC0"/>
</svg>
