<svg width="20" height="20" viewBox="0 0 20 20" fill="none" xmlns="http://www.w3.org/2000/svg">
<g clip-path="url(#clip0_423_36007)">
<path d="M16.6668 10V15C16.6668 16.8409 15.1744 18.3333 13.3335 18.3333H6.66683C4.82588 18.3333 3.3335 16.8409 3.3335 15V10" stroke="#A0AEC0" stroke-width="1.5"/>
<path d="M13.9741 1.6665H6.02622C4.51176 1.6665 3.14987 2.7038 2.58742 4.28571L1.95577 6.06223C1.76456 6.6 1.63239 7.17545 1.77185 7.7289C2.10214 9.03963 3.1737 9.99984 4.44462 9.99984C5.97874 9.99984 7.22239 8.60073 7.22239 6.87484C7.22239 8.60073 8.46605 9.99984 10.0002 9.99984C11.5343 9.99984 12.778 8.60073 12.778 6.87484C12.778 8.60073 14.0216 9.99984 15.5557 9.99984C16.8266 9.99984 17.8982 9.03963 18.2285 7.7289C18.368 7.17545 18.2358 6.6 18.0446 6.06223L17.4129 4.28571C16.8505 2.7038 15.4886 1.6665 13.9741 1.6665Z" stroke="#A0AEC0" stroke-width="1.5" stroke-linejoin="round"/>
<path d="M7.5 14.1665C9.46345 15.2835 10.5396 15.2717 12.5 14.1665" stroke="#A0AEC0" stroke-width="1.5" stroke-linecap="round" stroke-linejoin="round"/>
</g>
<defs>
<clipPath id="clip0_423_36007">
<rect width="20" height="20" fill="white"/>
</clipPath>
</defs>
</svg>
