<svg width="24" height="24" viewBox="0 0 24 24" fill="none" xmlns="http://www.w3.org/2000/svg">
<path fill-rule="evenodd" clip-rule="evenodd" d="M15.2705 3.02661C16.4373 2.87742 17.6177 3.35453 18.8171 4.48308L18.8185 4.48439C20.0219 5.62248 20.5698 6.77697 20.4876 7.95285C20.4081 9.0891 19.7494 10.0508 18.9983 10.8444M18.9983 10.8444L10.7924 19.5301C10.5611 19.782 10.2496 19.9953 9.95427 20.1532C9.65517 20.3131 9.30921 20.45 8.98442 20.5077L8.97943 20.5086L5.76058 21.0584C4.98001 21.193 4.23151 20.9979 3.69831 20.4923C3.16586 19.9873 2.93057 19.251 3.01773 18.4665L3.01799 18.4642L3.38959 15.2102C3.43275 14.8865 3.55297 14.5362 3.69468 14.2323C3.83588 13.9295 4.02853 13.6085 4.25651 13.3658L4.25797 13.3642L12.468 4.67425C13.2195 3.88037 14.1431 3.17079 15.2705 3.02661M13.5578 5.70491L5.34978 14.3928C5.26781 14.4803 5.15521 14.6495 5.05412 14.8663C4.95486 15.0791 4.89524 15.2761 4.87737 15.4026L4.50856 18.6321L4.50845 18.6332C4.46594 19.0181 4.58557 19.2664 4.73048 19.4039C4.87478 19.5407 5.12628 19.6456 5.50572 19.5802L5.50687 19.58L8.72398 19.0305C8.84925 19.0079 9.04227 18.9399 9.24703 18.8304C9.45461 18.7194 9.61076 18.5997 9.68893 18.514L9.69789 18.5042L17.908 9.81425C18.5766 9.1079 18.9482 8.46425 18.9912 7.84826C19.0315 7.2718 18.7945 6.52654 17.7886 5.575C16.7883 4.63401 16.0339 4.44121 15.4608 4.5145C14.8484 4.59281 14.2261 4.99903 13.5578 5.70491Z" fill="#A0AEC0"/>
<path fill-rule="evenodd" clip-rule="evenodd" d="M11.5277 5.89825C11.937 5.83448 12.3204 6.11457 12.3842 6.52385C12.7613 8.94447 14.7259 10.7971 17.1683 11.0431C17.5804 11.0846 17.8809 11.4523 17.8394 11.8645C17.7979 12.2766 17.4301 12.577 17.018 12.5355C13.9004 12.2215 11.385 9.85414 10.9021 6.75476C10.8383 6.34548 11.1184 5.96201 11.5277 5.89825Z" fill="#A0AEC0"/>
</svg>
