<svg width="16" height="16" viewBox="0 0 16 16" fill="none" xmlns="http://www.w3.org/2000/svg">
<path d="M10 10.6667L9.90194 11.157C10.123 11.2012 10.3464 11.0919 10.4472 10.8903L10 10.6667ZM5.33333 6L5.10973 5.55279C4.90806 5.65362 4.79882 5.87696 4.84304 6.09806L5.33333 6ZM5.56934 5.88199L5.79295 6.32921H5.79295L5.56934 5.88199ZM6.21103 4.19424L6.67527 4.00854L6.21103 4.19424ZM5.66859 2.83815L5.20435 3.02384L5.66859 2.83815ZM13.1619 10.3314L12.9762 10.7956L13.1619 10.3314ZM11.8058 9.78897L11.9915 9.32473V9.32473L11.8058 9.78897ZM10.118 10.4307L10.5652 10.6543L10.5652 10.6543L10.118 10.4307ZM10.8333 7.33333C10.8333 7.60948 11.0572 7.83333 11.3333 7.83333C11.6095 7.83333 11.8333 7.60948 11.8333 7.33333H10.8333ZM11.1303 6.31284L11.5923 6.1215L11.1303 6.31284ZM9.68716 4.86965L9.8785 4.40772V4.40771L9.68716 4.86965ZM8.66667 4.16667C8.39052 4.16667 8.16667 4.39052 8.16667 4.66667C8.16667 4.94281 8.39052 5.16667 8.66667 5.16667V4.16667ZM13.5 7.33333C13.5 7.60948 13.7239 7.83333 14 7.83333C14.2761 7.83333 14.5 7.60948 14.5 7.33333H13.5ZM13.594 5.29236L14.056 5.10101V5.10101L13.594 5.29236ZM10.7076 2.40598L10.899 1.94404V1.94404L10.7076 2.40598ZM8.66667 1.5C8.39052 1.5 8.16667 1.72386 8.16667 2C8.16667 2.27614 8.39052 2.5 8.66667 2.5V1.5ZM13.5 11.5694V12.6667H14.5V11.5694H13.5ZM3.33333 2.5H4.43062V1.5H3.33333V2.5ZM10 10.6667C10.0981 10.1764 10.0982 10.1764 10.0983 10.1764C10.0984 10.1764 10.0985 10.1765 10.0986 10.1765C10.0987 10.1765 10.0988 10.1765 10.0989 10.1766C10.0991 10.1766 10.0992 10.1766 10.0992 10.1766C10.0992 10.1766 10.0988 10.1765 10.098 10.1764C10.0965 10.176 10.0933 10.1754 10.0888 10.1744C10.0796 10.1723 10.0645 10.1689 10.044 10.1639C10.0029 10.1539 9.94025 10.1377 9.85983 10.1141C9.69877 10.0667 9.46776 9.98982 9.19696 9.87376C8.65306 9.64066 7.96261 9.2555 7.35355 8.64645L6.64645 9.35355C7.37073 10.0778 8.18028 10.526 8.80304 10.7929C9.11557 10.9268 9.38456 11.0166 9.57767 11.0734C9.67433 11.1019 9.75231 11.1221 9.80761 11.1356C9.83527 11.1423 9.85728 11.1473 9.87316 11.1508C9.8811 11.1526 9.88751 11.154 9.89233 11.155C9.89474 11.1555 9.89675 11.1559 9.89835 11.1562C9.89916 11.1564 9.89986 11.1565 9.90045 11.1567C9.90075 11.1567 9.90103 11.1568 9.90128 11.1568C9.9014 11.1568 9.90157 11.1569 9.90163 11.1569C9.90179 11.1569 9.90194 11.157 10 10.6667ZM7.35355 8.64645C6.7445 8.03739 6.35934 7.34695 6.12624 6.80304C6.01018 6.53224 5.9333 6.30123 5.88593 6.14017C5.86228 6.05975 5.84608 5.9971 5.83609 5.95604C5.8311 5.93553 5.82767 5.92043 5.82564 5.91125C5.82463 5.90666 5.82397 5.90355 5.82364 5.90197C5.82347 5.90119 5.82339 5.90079 5.82339 5.90078C5.82339 5.90078 5.82341 5.90087 5.82345 5.90106C5.82347 5.90116 5.82349 5.90128 5.82352 5.90143C5.82354 5.9015 5.82356 5.90163 5.82357 5.90167C5.8236 5.9018 5.82362 5.90194 5.33333 6C4.84304 6.09806 4.84307 6.09821 4.84311 6.09837C4.84312 6.09843 4.84315 6.0986 4.84318 6.09872C4.84323 6.09897 4.84328 6.09925 4.84334 6.09955C4.84346 6.10014 4.84361 6.10084 4.84377 6.10165C4.8441 6.10325 4.84452 6.10526 4.84502 6.10767C4.84603 6.11249 4.84741 6.1189 4.84916 6.12684C4.85267 6.14272 4.8577 6.16473 4.86443 6.19239C4.87788 6.24769 4.89814 6.32567 4.92657 6.42233C4.98336 6.61544 5.07315 6.88443 5.20709 7.19696C5.47399 7.81972 5.92217 8.62927 6.64645 9.35355L7.35355 8.64645ZM5.55694 6.44721L5.79295 6.32921L5.34574 5.43478L5.10973 5.55279L5.55694 6.44721ZM6.67527 4.00854L6.13283 2.65245L5.20435 3.02384L5.74679 4.37993L6.67527 4.00854ZM13.3475 9.86717L11.9915 9.32473L11.6201 10.2532L12.9762 10.7956L13.3475 9.86717ZM9.67079 10.207L9.55279 10.4431L10.4472 10.8903L10.5652 10.6543L9.67079 10.207ZM11.9915 9.32473C11.1062 8.97061 10.0972 9.35422 9.67079 10.207L10.5652 10.6543C10.759 10.2666 11.2177 10.0922 11.6201 10.2532L11.9915 9.32473ZM5.79295 6.32921C6.64578 5.90279 7.02939 4.89384 6.67527 4.00854L5.74679 4.37993C5.90775 4.78234 5.73339 5.24096 5.34574 5.43478L5.79295 6.32921ZM4.43062 2.5C4.77138 2.5 5.0778 2.70746 5.20435 3.02384L6.13283 2.65245C5.85441 1.95641 5.18028 1.5 4.43062 1.5V2.5ZM14.5 11.5694C14.5 10.8197 14.0436 10.1456 13.3475 9.86717L12.9762 10.7956C13.2925 10.9222 13.5 11.2286 13.5 11.5694H14.5ZM12.6667 13.5C7.05177 13.5 2.5 8.94823 2.5 3.33333H1.5C1.5 9.50051 6.49949 14.5 12.6667 14.5V13.5ZM12.6667 14.5C13.6792 14.5 14.5 13.6792 14.5 12.6667H13.5C13.5 13.1269 13.1269 13.5 12.6667 13.5V14.5ZM2.5 3.33333C2.5 2.8731 2.8731 2.5 3.33333 2.5V1.5C2.32081 1.5 1.5 2.32081 1.5 3.33333H2.5ZM11.8333 7.33333C11.8333 6.91748 11.7514 6.5057 11.5923 6.1215L10.6684 6.50419C10.7773 6.76706 10.8333 7.0488 10.8333 7.33333H11.8333ZM11.5923 6.1215C11.4331 5.7373 11.1999 5.38821 10.9058 5.09416L10.1987 5.80127C10.3999 6.00246 10.5595 6.24131 10.6684 6.50419L11.5923 6.1215ZM10.9058 5.09416C10.6118 4.80011 10.2627 4.56685 9.8785 4.40772L9.49581 5.33159C9.75869 5.44048 9.99754 5.60008 10.1987 5.80127L10.9058 5.09416ZM9.8785 4.40771C9.4943 4.24858 9.08252 4.16667 8.66667 4.16667V5.16667C8.9512 5.16667 9.23294 5.22271 9.49581 5.33159L9.8785 4.40771ZM14.5 7.33333C14.5 6.56729 14.3491 5.80875 14.056 5.10101L13.1321 5.4837C13.375 6.0701 13.5 6.69861 13.5 7.33333H14.5ZM14.056 5.10101C13.7628 4.39328 13.3331 3.75022 12.7915 3.20854L12.0843 3.91565C12.5332 4.36447 12.8892 4.89729 13.1321 5.4837L14.056 5.10101ZM12.7915 3.20854C12.2498 2.66687 11.6067 2.23719 10.899 1.94404L10.5163 2.86792C11.1027 3.11081 11.6355 3.46683 12.0843 3.91565L12.7915 3.20854ZM10.899 1.94404C10.1913 1.65088 9.43271 1.5 8.66667 1.5V2.5C9.30139 2.5 9.9299 2.62502 10.5163 2.86792L10.899 1.94404Z" fill="#A0AEC0"/>
</svg>
