<svg width="32" height="32" viewBox="0 0 32 32" fill="none" xmlns="http://www.w3.org/2000/svg">
<circle cx="16" cy="16" r="16" fill="#194BFB" fill-opacity="0.08"/>
<path d="M25 22.0003L16.8123 25.6392C16.2951 25.8691 15.7049 25.8691 15.1877 25.6392L7 22.0003M25 17.0003L16.8123 20.6392C16.2951 20.8691 15.7049 20.8691 15.1877 20.6392L7 17.0003M7.78885 11.8947L15.1056 15.553C15.6686 15.8346 16.3314 15.8346 16.8944 15.553L24.2111 11.8947C24.9482 11.5262 24.9482 10.4744 24.2111 10.1058L16.8944 6.44747C16.3314 6.16595 15.6686 6.16595 15.1056 6.44747L7.78886 10.1058C7.05181 10.4744 7.05181 11.5262 7.78885 11.8947Z" stroke="#436CFF" stroke-width="1.5" stroke-linecap="round" stroke-linejoin="round"/>
</svg>
