<svg width="21" height="20" viewBox="0 0 21 20" fill="none" xmlns="http://www.w3.org/2000/svg">
<path d="M4.66927 10.0003H4.6776M10.5026 10.0003H10.5109M16.3359 10.0003H16.3443M5.5026 10.0003C5.5026 10.4606 5.12951 10.8337 4.66927 10.8337C4.20903 10.8337 3.83594 10.4606 3.83594 10.0003C3.83594 9.54009 4.20903 9.16699 4.66927 9.16699C5.12951 9.16699 5.5026 9.54009 5.5026 10.0003ZM11.3359 10.0003C11.3359 10.4606 10.9628 10.8337 10.5026 10.8337C10.0424 10.8337 9.66927 10.4606 9.66927 10.0003C9.66927 9.54009 10.0424 9.16699 10.5026 9.16699C10.9628 9.16699 11.3359 9.54009 11.3359 10.0003ZM17.1693 10.0003C17.1693 10.4606 16.7962 10.8337 16.3359 10.8337C15.8757 10.8337 15.5026 10.4606 15.5026 10.0003C15.5026 9.54009 15.8757 9.16699 16.3359 9.16699C16.7962 9.16699 17.1693 9.54009 17.1693 10.0003Z" stroke="#687588" stroke-width="1.5" stroke-linecap="round" stroke-linejoin="round"/>
</svg>
