<svg width="33" height="32" viewBox="0 0 33 32" fill="none" xmlns="http://www.w3.org/2000/svg">
<circle cx="16.668" cy="16" r="16" fill="#ED5763" fill-opacity="0.08"/>
<path d="M25.668 22.0003L17.4802 25.6392C16.9631 25.8691 16.3728 25.8691 15.8557 25.6392L7.66797 22.0003M25.668 17.0003L17.4802 20.6392C16.9631 20.8691 16.3728 20.8691 15.8557 20.6392L7.66797 17.0003M8.45682 11.8947L15.7735 15.553C16.3366 15.8346 16.9993 15.8346 17.5624 15.553L24.8791 11.8947C25.6162 11.5262 25.6162 10.4744 24.8791 10.1058L17.5624 6.44747C16.9993 6.16595 16.3366 6.16595 15.7735 6.44747L8.45683 10.1058C7.71978 10.4744 7.71977 11.5262 8.45682 11.8947Z" stroke="#ED5763" stroke-width="1.5" stroke-linecap="round" stroke-linejoin="round"/>
</svg>
