<svg width="20" height="20" viewBox="0 0 20 20" fill="none" xmlns="http://www.w3.org/2000/svg">
<path fill-rule="evenodd" clip-rule="evenodd" d="M4.16673 4.79199C3.59144 4.79199 3.12507 5.25836 3.12507 5.83366V14.167C3.12507 14.7423 3.59144 15.2087 4.16673 15.2087H15.8334C16.4087 15.2087 16.8751 14.7423 16.8751 14.167V5.83366C16.8751 5.25836 16.4087 4.79199 15.8334 4.79199H4.16673ZM1.87507 5.83366C1.87507 4.56801 2.90108 3.54199 4.16673 3.54199H15.8334C17.0991 3.54199 18.1251 4.56801 18.1251 5.83366V14.167C18.1251 15.4326 17.0991 16.4587 15.8334 16.4587H4.16673C2.90108 16.4587 1.87507 15.4326 1.87507 14.167V5.83366Z" fill="#A0AEC0"/>
<path fill-rule="evenodd" clip-rule="evenodd" d="M1.98003 5.48697C2.17151 5.19977 2.55955 5.12216 2.84675 5.31363L10.0001 10.0825L17.1534 5.31363C17.4406 5.12216 17.8286 5.19977 18.0201 5.48697C18.2116 5.77418 18.134 6.16222 17.8468 6.35369L10.3468 11.3537C10.1368 11.4936 9.86332 11.4936 9.65338 11.3537L2.15338 6.35369C1.86617 6.16222 1.78856 5.77418 1.98003 5.48697Z" fill="#A0AEC0"/>
</svg>
