<svg width="25" height="24" viewBox="0 0 25 24" fill="none" xmlns="http://www.w3.org/2000/svg">
<g id="Huge-icon/interface/outline/layers">
<path id="Vector" d="M21.332 18.0003L13.1443 21.6392C12.6272 21.8691 12.0369 21.8691 11.5198 21.6392L3.33203 18.0003M21.332 13.0003L13.1443 16.6392C12.6272 16.8691 12.0369 16.8691 11.5198 16.6392L3.33203 13.0003M4.12089 7.89469L11.4376 11.553C12.0007 11.8346 12.6634 11.8346 13.2265 11.553L20.5432 7.89469C21.2802 7.52616 21.2802 6.47436 20.5432 6.10583L13.2265 2.44747C12.6634 2.16595 12.0007 2.16595 11.4376 2.44747L4.12089 6.10583C3.38384 6.47436 3.38384 7.52616 4.12089 7.89469Z" stroke="#F89B2E" stroke-width="1.5" stroke-linecap="round" stroke-linejoin="round"/>
</g>
</svg>
