<svg width="25" height="24" viewBox="0 0 25 24" fill="none" xmlns="http://www.w3.org/2000/svg">
<g id="Huge-icon/interface/outline/layers">
<path id="Vector" d="M21.668 18.0003L13.4802 21.6392C12.9631 21.8691 12.3728 21.8691 11.8557 21.6392L3.66797 18.0003M21.668 13.0003L13.4802 16.6392C12.9631 16.8691 12.3728 16.8691 11.8557 16.6392L3.66797 13.0003M4.45682 7.89469L11.7735 11.553C12.3366 11.8346 12.9993 11.8346 13.5624 11.553L20.8791 7.89469C21.6162 7.52616 21.6162 6.47436 20.8791 6.10583L13.5624 2.44747C12.9993 2.16595 12.3366 2.16595 11.7735 2.44747L4.45683 6.10583C3.71978 6.47436 3.71977 7.52616 4.45682 7.89469Z" stroke="#ED5763" stroke-width="1.5" stroke-linecap="round" stroke-linejoin="round"/>
</g>
</svg>
