<svg width="33" height="32" viewBox="0 0 33 32" fill="none" xmlns="http://www.w3.org/2000/svg">
<circle cx="16.332" cy="16" r="16" fill="#F9F9FC"/>
<path d="M13.832 17.7502C13.832 18.7202 14.582 19.5002 15.502 19.5002H17.382C18.182 19.5002 18.832 18.8202 18.832 17.9702C18.832 17.0602 18.432 16.7302 17.842 16.5202L14.832 15.4702C14.242 15.2602 13.842 14.9402 13.842 14.0202C13.842 13.1802 14.492 12.4902 15.292 12.4902H17.172C18.092 12.4902 18.842 13.2702 18.842 14.2402" stroke="#194BFB" stroke-width="1.5" stroke-linecap="round" stroke-linejoin="round"/>
<path d="M16.332 11.5V20.5" stroke="#194BFB" stroke-width="1.5" stroke-linecap="round" stroke-linejoin="round"/>
<path d="M26.332 16C26.332 21.52 21.852 26 16.332 26C10.812 26 6.33203 21.52 6.33203 16C6.33203 10.48 10.812 6 16.332 6" stroke="#194BFB" stroke-width="1.5" stroke-linecap="round" stroke-linejoin="round"/>
<path d="M26.332 10V6H22.332" stroke="#194BFB" stroke-width="1.5" stroke-linecap="round" stroke-linejoin="round"/>
<path d="M21.332 11L26.332 6" stroke="#194BFB" stroke-width="1.5" stroke-linecap="round" stroke-linejoin="round"/>
</svg>
