<svg width="33" height="32" viewBox="0 0 33 32" fill="none" xmlns="http://www.w3.org/2000/svg">
<circle cx="16.332" cy="16" r="16" fill="#F8772E" fill-opacity="0.08"/>
<path d="M25.332 22.0003L17.1443 25.6392C16.6272 25.8691 16.0369 25.8691 15.5198 25.6392L7.33203 22.0003M25.332 17.0003L17.1443 20.6392C16.6272 20.8691 16.0369 20.8691 15.5198 20.6392L7.33203 17.0003M8.12089 11.8947L15.4376 15.553C16.0007 15.8346 16.6634 15.8346 17.2265 15.553L24.5432 11.8947C25.2802 11.5262 25.2802 10.4744 24.5432 10.1058L17.2265 6.44747C16.6634 6.16595 16.0007 6.16595 15.4376 6.44747L8.12089 10.1058C7.38384 10.4744 7.38384 11.5262 8.12089 11.8947Z" stroke="#F89B2E" stroke-width="1.5" stroke-linecap="round" stroke-linejoin="round"/>
</svg>
