<svg width="25" height="24" viewBox="0 0 25 24" fill="none" xmlns="http://www.w3.org/2000/svg">
<g id="wallet-money">
<g id="vuesax/linear/wallet-money">
<path id="Vector" d="M11.4196 16.8604V18.8904C11.4196 20.6104 9.81955 22.0004 7.84955 22.0004C5.87955 22.0004 4.26953 20.6104 4.26953 18.8904V16.8604C4.26953 18.5804 5.86955 19.8004 7.84955 19.8004C9.81955 19.8004 11.4196 18.5704 11.4196 16.8604Z" stroke="#194BFB" stroke-width="1.5" stroke-linecap="round" stroke-linejoin="round"/>
<path id="Vector_2" d="M11.4178 14.1097C11.4178 14.6097 11.2778 15.0697 11.0378 15.4697C10.4478 16.4397 9.23777 17.0497 7.83777 17.0497C6.43777 17.0497 5.22776 16.4297 4.63776 15.4697C4.39776 15.0697 4.25781 14.6097 4.25781 14.1097C4.25781 13.2497 4.65779 12.4797 5.29779 11.9197C5.94779 11.3497 6.83776 11.0098 7.82776 11.0098C8.81776 11.0098 9.70779 11.3597 10.3578 11.9197C11.0178 12.4697 11.4178 13.2497 11.4178 14.1097Z" stroke="#194BFB" stroke-width="1.5" stroke-linecap="round" stroke-linejoin="round"/>
<path id="Vector_3" d="M11.4196 14.11V16.86C11.4196 18.58 9.81955 19.8 7.84955 19.8C5.87955 19.8 4.26953 18.57 4.26953 16.86V14.11C4.26953 12.39 5.86955 11 7.84955 11C8.83955 11 9.72958 11.35 10.3796 11.91C11.0196 12.47 11.4196 13.25 11.4196 14.11Z" stroke="#194BFB" stroke-width="1.5" stroke-linecap="round" stroke-linejoin="round"/>
<path id="Vector_4" d="M22.6682 10.9702V13.0302C22.6682 13.5802 22.2282 14.0302 21.6682 14.0502H19.7082C18.6282 14.0502 17.6382 13.2602 17.5482 12.1802C17.4882 11.5502 17.7282 10.9602 18.1482 10.5502C18.5182 10.1702 19.0282 9.9502 19.5882 9.9502H21.6682C22.2282 9.9702 22.6682 10.4202 22.6682 10.9702Z" stroke="#194BFB" stroke-width="1.5" stroke-linecap="round" stroke-linejoin="round"/>
<path id="Vector_5" d="M2.66797 10.5V8.5C2.66797 5.78 4.30797 3.88 6.85797 3.56C7.11797 3.52 7.38797 3.5 7.66797 3.5H16.668C16.928 3.5 17.178 3.50999 17.418 3.54999C19.998 3.84999 21.668 5.76 21.668 8.5V9.95001H19.588C19.028 9.95001 18.5179 10.17 18.1479 10.55C17.7279 10.96 17.488 11.55 17.548 12.18C17.638 13.26 18.6279 14.05 19.7079 14.05H21.668V15.5C21.668 18.5 19.668 20.5 16.668 20.5H14.168" stroke="#194BFB" stroke-width="1.5" stroke-linecap="round" stroke-linejoin="round"/>
</g>
</g>
</svg>
