<svg width="20" height="20" viewBox="0 0 20 20" fill="none" xmlns="http://www.w3.org/2000/svg">
<path fill-rule="evenodd" clip-rule="evenodd" d="M4.16667 3.95801C3.8904 3.95801 3.62545 4.06775 3.4301 4.2631C3.23875 4.45445 3.12954 4.71257 3.12514 4.98269C3.31806 8.07316 4.63275 10.9872 6.82263 13.177C9.01252 15.3669 11.9265 16.6816 15.017 16.8745C15.2871 16.8701 15.5452 16.7609 15.7366 16.5696C15.9319 16.3742 16.0417 16.1093 16.0417 15.833V12.9228L12.7621 11.611L11.7859 13.2379C11.6186 13.5168 11.2653 13.6208 10.9736 13.4769C9.04056 12.5236 7.47611 10.9591 6.5228 9.02612C6.37892 8.7344 6.48286 8.38109 6.76177 8.21374L8.38869 7.23759L7.07685 3.95801H4.16667ZM2.54621 3.37922C2.97598 2.94945 3.55888 2.70801 4.16667 2.70801H7.5C7.75557 2.70801 7.98538 2.8636 8.0803 3.10089L9.74696 7.26756C9.86089 7.55238 9.75127 7.87778 9.48823 8.03561L7.91508 8.9795C8.66174 10.2674 9.73232 11.3379 11.0202 12.0846L11.9641 10.5114C12.1219 10.2484 12.4473 10.1388 12.7321 10.2527L16.8988 11.9194C17.1361 12.0143 17.2917 12.2441 17.2917 12.4997V15.833C17.2917 16.4408 17.0502 17.0237 16.6205 17.4535C16.1907 17.8832 15.6078 18.1247 15 18.1247C14.9874 18.1247 14.9747 18.1243 14.9621 18.1235C11.5591 17.9167 8.34946 16.4716 5.93875 14.0609C3.52804 11.6502 2.08295 8.44057 1.87615 5.03759C1.87538 5.02496 1.875 5.01232 1.875 4.99967C1.875 4.39189 2.11644 3.80899 2.54621 3.37922Z" fill="#A0AEC0"/>
</svg>
