<svg width="20" height="20" viewBox="0 0 20 20" fill="none" xmlns="http://www.w3.org/2000/svg">
<path d="M14.7127 13.8807C13.9852 14.6083 12.5176 16.0758 11.4121 17.1813C10.6311 17.9624 9.36629 17.9623 8.58524 17.1813C7.49962 16.0957 6.05916 14.6552 5.28465 13.8807C2.68116 11.2772 2.68116 7.05612 5.28465 4.45262C7.88815 1.84913 12.1092 1.84913 14.7127 4.45262C17.3162 7.05612 17.3162 11.2772 14.7127 13.8807Z" stroke="#A0AEC0" stroke-width="1.5" stroke-linecap="round" stroke-linejoin="round"/>
<path d="M12.4987 9.16667C12.4987 10.5474 11.3794 11.6667 9.9987 11.6667C8.61799 11.6667 7.4987 10.5474 7.4987 9.16667C7.4987 7.78596 8.61799 6.66667 9.9987 6.66667C11.3794 6.66667 12.4987 7.78596 12.4987 9.16667Z" stroke="#A0AEC0" stroke-width="1.5" stroke-linecap="round" stroke-linejoin="round"/>
</svg>
