<svg width="18" height="17" viewBox="0 0 18 17" fill="none" xmlns="http://www.w3.org/2000/svg">
<path d="M16.8602 0.817993C16.4434 0.390173 15.8265 0.230789 15.2512 0.398562L1.83739 4.29928C1.23048 4.46789 0.800302 4.95191 0.684421 5.5668C0.566039 6.19259 0.979542 6.987 1.51976 7.31919L5.71398 9.89702C6.14416 10.1613 6.69938 10.095 7.05536 9.73595L11.8582 4.90326C12.0999 4.6516 12.5001 4.6516 12.7419 4.90326C12.9836 5.14653 12.9836 5.5408 12.7419 5.79246L7.93072 10.626C7.57391 10.9842 7.50721 11.542 7.76982 11.9749L10.3325 16.2111C10.6327 16.7145 11.1495 16.9997 11.7164 16.9997C11.7831 16.9997 11.8582 16.9997 11.9249 16.9913C12.5751 16.9074 13.092 16.4628 13.2837 15.8337L17.2604 2.437C17.4354 1.86657 17.277 1.24581 16.8602 0.817993Z" fill="#687588"/>
</svg>
