<svg width="20" height="20" viewBox="0 0 20 20" fill="none" xmlns="http://www.w3.org/2000/svg">
<ellipse cx="10" cy="13.7503" rx="5" ry="2.08333" stroke="#A0AEC0" stroke-width="1.5" stroke-linejoin="round"/>
<circle cx="10" cy="6.66699" r="2.5" stroke="#A0AEC0" stroke-width="1.5" stroke-linejoin="round"/>
<path fill-rule="evenodd" clip-rule="evenodd" d="M5.63014 10.9189C4.48615 10.9396 3.42425 11.1331 2.60981 11.4589C2.18051 11.6306 1.78276 11.8539 1.48008 12.1401C1.1758 12.4279 0.917969 12.831 0.917969 13.3338C0.917969 13.8366 1.1758 14.2397 1.48008 14.5274C1.78276 14.8137 2.18051 15.0369 2.60981 15.2086C3.07943 15.3965 3.63131 15.5404 4.23377 15.6325C3.69824 15.1143 3.37707 14.5174 3.33855 13.8802C3.27923 13.8594 3.22198 13.838 3.1669 13.8159C2.84219 13.686 2.62974 13.5501 2.51074 13.4376C2.4578 13.3875 2.43374 13.3529 2.42328 13.3338C2.43374 13.3147 2.4578 13.28 2.51074 13.2299C2.62974 13.1174 2.84219 12.9815 3.1669 12.8516C3.29844 12.799 3.44235 12.7498 3.59727 12.7048C3.95887 12.0028 4.6753 11.3857 5.63014 10.9189ZM2.41585 13.3513C2.41572 13.3512 2.41596 13.3499 2.41696 13.3472C2.41648 13.3499 2.41598 13.3513 2.41585 13.3513ZM2.41696 13.3204C2.41596 13.3177 2.41572 13.3163 2.41585 13.3163C2.41598 13.3163 2.41648 13.3176 2.41696 13.3204Z" fill="#A0AEC0"/>
<path fill-rule="evenodd" clip-rule="evenodd" d="M16.6627 13.8802C16.6242 14.5174 16.303 15.1143 15.7675 15.6325C16.3699 15.5404 16.9218 15.3965 17.3914 15.2086C17.8207 15.0369 18.2185 14.8137 18.5212 14.5274C18.8254 14.2397 19.0833 13.8366 19.0833 13.3338C19.0833 12.831 18.8254 12.4279 18.5212 12.1401C18.2185 11.8539 17.8207 11.6306 17.3914 11.4589C16.577 11.1331 15.5151 10.9396 14.3711 10.9189C15.3259 11.3857 16.0424 12.0028 16.404 12.7048C16.5589 12.7498 16.7028 12.799 16.8343 12.8516C17.159 12.9815 17.3715 13.1174 17.4905 13.2299C17.5434 13.28 17.5675 13.3147 17.578 13.3338C17.5675 13.3529 17.5434 13.3875 17.4905 13.4376C17.3715 13.5501 17.159 13.686 16.8343 13.8159C16.7793 13.838 16.722 13.8594 16.6627 13.8802ZM17.5854 13.3513C17.5853 13.3513 17.5848 13.3499 17.5843 13.3472C17.5853 13.3499 17.5855 13.3512 17.5854 13.3513ZM17.5843 13.3204C17.5848 13.3176 17.5853 13.3163 17.5854 13.3163C17.5855 13.3163 17.5853 13.3177 17.5843 13.3204Z" fill="#A0AEC0"/>
<path fill-rule="evenodd" clip-rule="evenodd" d="M13.816 8.34613C13.6096 8.81414 13.3196 9.23699 12.9648 9.59575C13.3192 9.79969 13.7302 9.91634 14.1685 9.91634C15.5032 9.91634 16.5851 8.83436 16.5851 7.49967C16.5851 6.16499 15.5032 5.08301 14.1685 5.08301C14.0656 5.08301 13.9643 5.08943 13.8648 5.1019C14.0508 5.56064 14.1574 6.06001 14.1676 6.58301C14.1679 6.58301 14.1682 6.58301 14.1685 6.58301C14.6747 6.58301 15.0851 6.99341 15.0851 7.49967C15.0851 8.00594 14.6747 8.41634 14.1685 8.41634C14.0436 8.41634 13.9245 8.39136 13.816 8.34613Z" fill="#A0AEC0"/>
<path fill-rule="evenodd" clip-rule="evenodd" d="M6.13829 5.1019C6.03883 5.08943 5.93748 5.08301 5.83464 5.08301C4.49995 5.08301 3.41797 6.16499 3.41797 7.49967C3.41797 8.83436 4.49995 9.91634 5.83464 9.91634C6.27287 9.91634 6.68386 9.79969 7.03825 9.59575C6.68354 9.23699 6.39351 8.81414 6.1871 8.34613C6.07859 8.39136 5.95953 8.41634 5.83464 8.41634C5.32837 8.41634 4.91797 8.00594 4.91797 7.49967C4.91797 6.99341 5.32837 6.58301 5.83464 6.58301C5.83491 6.58301 5.83518 6.58301 5.83545 6.58301C5.84571 6.06001 5.95233 5.56064 6.13829 5.1019Z" fill="#A0AEC0"/>
</svg>
