<svg width="20" height="20" viewBox="0 0 20 20" fill="none" xmlns="http://www.w3.org/2000/svg">
<path fill-rule="evenodd" clip-rule="evenodd" d="M4.16536 3.95801C4.05031 3.95801 3.95703 4.05128 3.95703 4.16634V7.49967C3.95703 7.61473 4.05031 7.70801 4.16536 7.70801H7.4987C7.61376 7.70801 7.70703 7.61473 7.70703 7.49967V4.16634C7.70703 4.05128 7.61376 3.95801 7.4987 3.95801H4.16536ZM2.70703 4.16634C2.70703 3.36093 3.35995 2.70801 4.16536 2.70801H7.4987C8.30411 2.70801 8.95703 3.36093 8.95703 4.16634V7.49967C8.95703 8.30509 8.30411 8.95801 7.4987 8.95801H4.16536C3.35995 8.95801 2.70703 8.30509 2.70703 7.49967V4.16634Z" fill="#A0AEC0"/>
<path fill-rule="evenodd" clip-rule="evenodd" d="M12.4987 3.95801C12.3836 3.95801 12.2904 4.05128 12.2904 4.16634V7.49967C12.2904 7.61473 12.3836 7.70801 12.4987 7.70801H15.832C15.9471 7.70801 16.0404 7.61473 16.0404 7.49967V4.16634C16.0404 4.05128 15.9471 3.95801 15.832 3.95801H12.4987ZM11.0404 4.16634C11.0404 3.36093 11.6933 2.70801 12.4987 2.70801H15.832C16.6374 2.70801 17.2904 3.36093 17.2904 4.16634V7.49967C17.2904 8.30509 16.6374 8.95801 15.832 8.95801H12.4987C11.6933 8.95801 11.0404 8.30509 11.0404 7.49967V4.16634Z" fill="#A0AEC0"/>
<path fill-rule="evenodd" clip-rule="evenodd" d="M4.16536 12.2913C4.05031 12.2913 3.95703 12.3846 3.95703 12.4997V15.833C3.95703 15.9481 4.05031 16.0413 4.16536 16.0413H7.4987C7.61376 16.0413 7.70703 15.9481 7.70703 15.833V12.4997C7.70703 12.3846 7.61376 12.2913 7.4987 12.2913H4.16536ZM2.70703 12.4997C2.70703 11.6943 3.35995 11.0413 4.16536 11.0413H7.4987C8.30411 11.0413 8.95703 11.6943 8.95703 12.4997V15.833C8.95703 16.6384 8.30411 17.2913 7.4987 17.2913H4.16536C3.35995 17.2913 2.70703 16.6384 2.70703 15.833V12.4997Z" fill="#A0AEC0"/>
<path fill-rule="evenodd" clip-rule="evenodd" d="M12.4987 12.2913C12.3836 12.2913 12.2904 12.3846 12.2904 12.4997V15.833C12.2904 15.9481 12.3836 16.0413 12.4987 16.0413H15.832C15.9471 16.0413 16.0404 15.9481 16.0404 15.833V12.4997C16.0404 12.3846 15.9471 12.2913 15.832 12.2913H12.4987ZM11.0404 12.4997C11.0404 11.6943 11.6933 11.0413 12.4987 11.0413H15.832C16.6374 11.0413 17.2904 11.6943 17.2904 12.4997V15.833C17.2904 16.6384 16.6374 17.2913 15.832 17.2913H12.4987C11.6933 17.2913 11.0404 16.6384 11.0404 15.833V12.4997Z" fill="#A0AEC0"/>
</svg>
