<svg width="100" height="61" viewBox="0 0 100 61" fill="none" xmlns="http://www.w3.org/2000/svg">
<path fill-rule="evenodd" clip-rule="evenodd" d="M17.1766 0.984999C10.3044 2.5215 2.82607 6.42969 0.165248 13.324C-0.194235 14.1704 0.00944828 15.1866 1.00713 15.6719C1.78976 16.0337 2.94512 15.7541 3.30461 14.9077C6.02093 7.80397 14.4414 4.59045 21.4265 3.73292C36.2858 1.89248 50.1423 9.10493 60.652 19.0012C66.0231 24.1478 70.6778 29.9577 75.0021 35.9945C79.707 42.6204 83.8802 49.5545 87.5218 56.7966C87.4899 56.8825 87.4494 56.987 87.4088 57.0916C87.38 57.1658 87.3512 57.24 87.3255 57.3076C87.1575 57.1751 86.9248 57.0565 86.7465 56.9657C86.6752 56.9294 86.6125 56.8975 86.5662 56.8709C85.6994 56.2743 84.8487 55.6596 83.998 55.0449C83.1473 54.4302 82.2965 53.8155 81.4297 53.2189C74.7745 48.4974 68.0462 43.7119 61.3179 38.9264C60.5907 38.3553 59.5552 38.3527 58.9119 39.08C58.333 39.7345 58.3393 40.9006 59.0664 41.4717C61.1293 42.9526 63.1911 44.4164 65.2528 45.8802C67.3145 47.3439 69.3762 48.8076 71.439 50.2885C73.2823 51.5775 75.1096 52.8847 76.9369 54.1918C78.7642 55.499 80.5915 56.8062 82.4348 58.0952C83.377 58.7899 84.246 59.4206 85.1838 60.0469C86.1216 60.6732 87.1192 61.1585 88.2103 60.9516C90.1349 60.6476 90.725 58.7274 91.2324 57.0768C91.3014 56.8522 91.3689 56.6326 91.438 56.4227L99.9408 30.9719C100.232 30.1299 99.4092 29.1531 98.4204 28.8045C97.4403 28.5926 96.6507 29.1919 96.3644 30.1022C95.6442 32.3097 94.9068 34.5182 94.1693 36.7267C93.4319 38.9352 92.6945 41.1437 91.9743 43.3512C91.2346 45.645 90.4699 47.917 89.7085 50.179C89.4779 50.8644 89.2475 51.5488 89.0182 52.2326C85.1519 44.8891 80.7729 37.8496 75.7974 31.2091C66.5813 18.8973 55.2008 7.27249 40.1795 2.33014C32.7719 -0.147621 24.7961 -0.736437 17.1766 0.984999ZM87.5262 57.5249C87.5698 57.5765 87.5862 57.5779 87.5835 57.5657C87.5808 57.5534 87.559 57.5277 87.5262 57.5249Z" fill="#E9EAEC"/>
</svg>
