<svg width="23" height="22" viewBox="0 0 23 22" fill="none" xmlns="http://www.w3.org/2000/svg">
<path d="M21.1259 11.2139C21.1259 10.4225 21.0604 9.84497 20.9186 9.24609H11.6974V12.818H17.11C17.001 13.7057 16.4117 15.0425 15.1021 15.9408L15.0838 16.0603L17.9993 18.2738L18.2013 18.2936C20.0565 16.6145 21.1259 14.1441 21.1259 11.2139Z" fill="#4285F4"/>
<path d="M11.6968 20.6248C14.3485 20.6248 16.5747 19.7692 18.2007 18.2934L15.1015 15.9405C14.2722 16.5073 13.159 16.903 11.6968 16.903C9.09958 16.903 6.89524 15.224 6.10945 12.9033L5.99427 12.9129L2.96262 15.2122L2.92297 15.3202C4.53803 18.4644 7.85548 20.6248 11.6968 20.6248Z" fill="#34A853"/>
<path d="M6.11006 12.9034C5.90272 12.3045 5.78273 11.6628 5.78273 10.9997C5.78273 10.3366 5.90272 9.695 6.09915 9.09612L6.09366 8.96857L3.024 6.63232L2.92357 6.67914C2.25792 7.98388 1.87598 9.44905 1.87598 10.9997C1.87598 12.5504 2.25792 14.0155 2.92357 15.3203L6.11006 12.9034Z" fill="#FBBC05"/>
<path d="M11.6968 5.09664C13.541 5.09664 14.7851 5.87733 15.4944 6.52974L18.2662 3.8775C16.5639 2.32681 14.3486 1.375 11.6968 1.375C7.85551 1.375 4.53804 3.53526 2.92297 6.6794L6.09856 9.09638C6.89526 6.77569 9.09961 5.09664 11.6968 5.09664Z" fill="#EB4335"/>
</svg>
