<svg width="122" height="28" viewBox="0 0 122 28" fill="none" xmlns="http://www.w3.org/2000/svg">
<path d="M0.96 21V0.839999H4.376L11.04 14.224L17.704 0.839999H21.12V21H17.564V8.96L11.712 21H10.368L4.516 8.96V21H0.96ZM26.9818 27.72L29.8938 19.712L29.9498 22.064L23.3698 5.88H27.3178L31.7418 17.332H30.8458L35.2418 5.88H39.0498L30.5098 27.72H26.9818ZM46.9041 21V0.839999H50.7121V17.444H59.3921V21H46.9041ZM69.8776 21.42C67.8616 21.42 66.121 20.9813 64.6556 20.104C63.1996 19.2267 62.075 17.9993 61.2816 16.422C60.4976 14.8447 60.1056 13.0107 60.1056 10.92C60.1056 8.82933 60.4976 6.99533 61.2816 5.418C62.075 3.84067 63.1996 2.61333 64.6556 1.736C66.121 0.858666 67.8616 0.42 69.8776 0.42C71.8936 0.42 73.6296 0.858666 75.0856 1.736C76.551 2.61333 77.6756 3.84067 78.4596 5.418C79.253 6.99533 79.6496 8.82933 79.6496 10.92C79.6496 13.0107 79.253 14.8447 78.4596 16.422C77.6756 17.9993 76.551 19.2267 75.0856 20.104C73.6296 20.9813 71.8936 21.42 69.8776 21.42ZM69.8776 17.836C71.1563 17.8547 72.2203 17.5793 73.0696 17.01C73.919 16.4407 74.5536 15.6333 74.9736 14.588C75.403 13.5427 75.6176 12.32 75.6176 10.92C75.6176 9.52 75.403 8.30667 74.9736 7.28C74.5536 6.25333 73.919 5.45533 73.0696 4.886C72.2203 4.31667 71.1563 4.02267 69.8776 4.004C68.599 3.98533 67.535 4.26067 66.6856 4.83C65.8363 5.39933 65.197 6.20667 64.7676 7.252C64.3476 8.29733 64.1376 9.52 64.1376 10.92C64.1376 12.32 64.3476 13.5333 64.7676 14.56C65.197 15.5867 65.8363 16.3847 66.6856 16.954C67.535 17.5233 68.599 17.8173 69.8776 17.836ZM90.8444 21.42C89.575 21.42 88.3664 21.196 87.2184 20.748C86.0704 20.2907 85.053 19.6187 84.1664 18.732C83.289 17.8453 82.5937 16.7487 82.0804 15.442C81.5764 14.1353 81.3244 12.628 81.3244 10.92C81.3244 8.68933 81.749 6.79467 82.5984 5.236C83.457 3.668 84.605 2.47333 86.0424 1.652C87.489 0.830666 89.0897 0.42 90.8444 0.42C93.439 0.42 95.4784 1.022 96.9624 2.226C98.4464 3.43 99.4404 5.13333 99.9444 7.336L96.0524 7.896C95.6884 6.72 95.091 5.782 94.2604 5.082C93.439 4.37267 92.3844 4.01333 91.0964 4.004C89.8177 3.98533 88.7537 4.26067 87.9044 4.83C87.055 5.39933 86.4157 6.20667 85.9864 7.252C85.5664 8.29733 85.3564 9.52 85.3564 10.92C85.3564 12.32 85.5664 13.5333 85.9864 14.56C86.4157 15.5867 87.055 16.3847 87.9044 16.954C88.7537 17.5233 89.8177 17.8173 91.0964 17.836C91.9644 17.8547 92.7484 17.7053 93.4484 17.388C94.1577 17.0707 94.755 16.5713 95.2404 15.89C95.7257 15.2087 96.071 14.336 96.2764 13.272H93.0844V10.332H100.336C100.355 10.4533 100.369 10.668 100.378 10.976C100.388 11.284 100.392 11.4613 100.392 11.508C100.392 13.44 100 15.1527 99.2164 16.646C98.4324 18.1393 97.3264 19.3107 95.8984 20.16C94.4704 21 92.7857 21.42 90.8444 21.42ZM111.85 21.42C109.834 21.42 108.094 20.9813 106.628 20.104C105.172 19.2267 104.048 17.9993 103.254 16.422C102.47 14.8447 102.078 13.0107 102.078 10.92C102.078 8.82933 102.47 6.99533 103.254 5.418C104.048 3.84067 105.172 2.61333 106.628 1.736C108.094 0.858666 109.834 0.42 111.85 0.42C113.866 0.42 115.602 0.858666 117.058 1.736C118.524 2.61333 119.648 3.84067 120.432 5.418C121.226 6.99533 121.622 8.82933 121.622 10.92C121.622 13.0107 121.226 14.8447 120.432 16.422C119.648 17.9993 118.524 19.2267 117.058 20.104C115.602 20.9813 113.866 21.42 111.85 21.42ZM111.85 17.836C113.129 17.8547 114.193 17.5793 115.042 17.01C115.892 16.4407 116.526 15.6333 116.946 14.588C117.376 13.5427 117.59 12.32 117.59 10.92C117.59 9.52 117.376 8.30667 116.946 7.28C116.526 6.25333 115.892 5.45533 115.042 4.886C114.193 4.31667 113.129 4.02267 111.85 4.004C110.572 3.98533 109.508 4.26067 108.658 4.83C107.809 5.39933 107.17 6.20667 106.74 7.252C106.32 8.29733 106.11 9.52 106.11 10.92C106.11 12.32 106.32 13.5333 106.74 14.56C107.17 15.5867 107.809 16.3847 108.658 16.954C109.508 17.5233 110.572 17.8173 111.85 17.836Z" fill="#FF9F29"/>
</svg>
