<svg width="232" height="41" viewBox="0 0 232 41" fill="none" xmlns="http://www.w3.org/2000/svg">
<path d="M96.5329 6.713C96.3061 6.94062 95.9422 6.96132 95.6838 6.76473C94.5868 5.937 93.1418 5.48692 91.8549 5.48692C88.2634 5.48692 86.0852 8.16152 86.0852 11.5449C86.0852 14.2453 87.6885 17.0389 91.8549 17.0389C93.089 17.0389 94.1754 16.7906 95.3884 15.9111C95.5467 15.7973 95.6363 15.6111 95.6363 15.4145V13.4331C95.6363 13.0865 95.3515 12.8072 94.9982 12.8072H91.9868C91.6334 12.8072 91.3486 12.5278 91.3486 12.1812V10.6602C91.3486 10.3136 91.6334 10.0343 91.9868 10.0343H97.8936C98.2469 10.0343 98.5317 10.3136 98.5317 10.6602V16.7182C98.5317 16.8734 98.4737 17.0234 98.3682 17.1424C96.7438 18.8858 94.7028 19.9205 91.8549 19.9205C85.5579 19.9205 83 15.8594 83 11.5397C83 6.91476 85.9429 2.6416 91.8549 2.6416C93.8907 2.6416 95.9264 3.33483 97.5719 4.70058C97.8566 4.93338 97.8777 5.35759 97.6193 5.62143L96.5329 6.713Z" fill="#2D2E30"/>
<path d="M113.161 13.7752C113.161 17.1069 110.84 19.8073 107.011 19.8073C103.182 19.8073 100.883 17.1069 100.883 13.7752C100.883 10.4643 103.23 7.74316 106.985 7.74316C110.74 7.74316 113.161 10.4643 113.161 13.7752ZM103.799 13.7752C103.799 15.5342 104.875 17.1793 107.006 17.1793C109.137 17.1793 110.212 15.5342 110.212 13.7752C110.212 12.037 108.968 10.3453 107.006 10.3453C104.902 10.3453 103.799 12.037 103.799 13.7752Z" fill="#2D2E30"/>
<path d="M127.403 12.3777V3.73828C127.403 3.39166 127.688 3.1123 128.041 3.1123H129.929C130.283 3.1123 130.567 3.39166 130.567 3.73828V18.9219C130.567 19.2686 130.283 19.5479 129.929 19.5479H128.31C128.115 19.5479 127.936 19.46 127.814 19.3151L120.236 10.0032C119.861 9.54273 119.102 9.80139 119.102 10.3912V18.9271C119.102 19.2737 118.817 19.5531 118.464 19.5531H116.576C116.222 19.5531 115.938 19.2737 115.938 18.9271V3.73828C115.938 3.39166 116.222 3.1123 116.576 3.1123H118.195C118.39 3.1123 118.574 3.20025 118.696 3.35028L126.274 12.7605C126.644 13.2261 127.403 12.9675 127.403 12.3777Z" fill="#2D2E30"/>
<path d="M137.27 14.7832C136.795 14.7832 136.473 15.285 136.7 15.6937C137.217 16.6301 138.335 17.2457 139.922 17.2457C140.819 17.2457 141.953 16.9663 142.691 16.48C142.939 16.3145 143.271 16.3507 143.482 16.5576L144.463 17.5095C144.743 17.7785 144.706 18.2234 144.395 18.4562C143.15 19.3978 141.42 19.853 139.87 19.853C135.804 19.853 133.383 17.3905 133.383 13.6761C133.383 10.1531 135.825 7.61816 139.653 7.61816C143.43 7.61816 145.85 9.81165 145.655 14.1727C145.639 14.509 145.36 14.778 145.017 14.778H137.27V14.7832ZM141.969 12.4086C142.443 12.4086 142.76 11.912 142.538 11.5033C142.058 10.6083 141.051 10.1583 139.754 10.1583C138.562 10.1583 137.528 10.5876 136.911 11.4464C136.621 11.8499 136.937 12.4138 137.444 12.4138H141.969V12.4086Z" fill="#2D2E30"/>
<path d="M154.864 8.28598C154.98 8.09457 155.185 7.97559 155.412 7.97559H158.54V8.06871L154.906 13.3248C154.758 13.5369 154.758 13.8214 154.911 14.0335L158.777 19.481V19.5535H155.628C155.412 19.5535 155.212 19.4448 155.096 19.2689L153.255 16.4857C153.002 16.108 152.438 16.108 152.19 16.4857L150.349 19.2689C150.233 19.4448 150.033 19.5535 149.816 19.5535H146.668V19.481L150.534 14.0335C150.687 13.8214 150.687 13.5421 150.539 13.3248L146.911 8.06871V7.97559H150.038C150.265 7.97559 150.476 8.09457 150.586 8.28598L152.174 10.9658C152.417 11.3796 153.028 11.3796 153.276 10.9658L154.864 8.28598Z" fill="#2D2E30"/>
<path d="M165.101 5.40451V7.37554C165.101 7.72215 165.386 8.00151 165.74 8.00151H167.723C168.076 8.00151 168.361 8.28087 168.361 8.62748V9.84321C168.361 10.1898 168.076 10.4692 167.723 10.4692H165.718C165.365 10.4692 165.08 10.7485 165.08 11.0952V15.4718C165.08 16.5737 165.703 17.1169 166.61 17.1169C166.873 17.1169 167.164 17.0703 167.443 16.9876C167.775 16.8893 168.123 17.0703 168.229 17.3911L168.64 18.6327C168.751 18.9586 168.572 19.3155 168.239 19.419C167.643 19.6001 167.084 19.6828 166.42 19.7035C163.857 19.7967 162.185 18.3637 162.185 15.4769V11.1003C162.185 10.7537 161.9 10.4744 161.547 10.4744H160.619C160.265 10.4744 159.98 10.195 159.98 9.84838V8.63266C159.98 8.28604 160.265 8.00669 160.619 8.00669H161.547C161.9 8.00669 162.185 7.72733 162.185 7.38072V5.58558C162.185 5.26483 162.433 5.00099 162.755 4.96478L164.4 4.79406C164.769 4.7475 165.101 5.03203 165.101 5.40451Z" fill="#2D2E30"/>
<path d="M174.6 3.73828V16.0611C174.6 16.4077 174.885 16.6871 175.239 16.6871H182.58C182.933 16.6871 183.218 16.9664 183.218 17.313V18.9271C183.218 19.2737 182.933 19.5531 182.58 19.5531H172.08C171.726 19.5531 171.441 19.2737 171.441 18.9271V3.73828C171.441 3.39166 171.726 3.1123 172.08 3.1123H173.968C174.316 3.1123 174.6 3.39166 174.6 3.73828Z" fill="#2D2E30"/>
<path d="M188.633 14.7832C188.158 14.7832 187.837 15.285 188.063 15.6937C188.58 16.6301 189.698 17.2457 191.286 17.2457C192.182 17.2457 193.316 16.9663 194.055 16.48C194.302 16.3145 194.635 16.3507 194.846 16.5576L195.827 17.5095C196.106 17.7785 196.069 18.2234 195.758 18.4562C194.513 19.3978 192.784 19.853 191.233 19.853C187.167 19.853 184.746 17.3905 184.746 13.6761C184.746 10.1531 187.188 7.61816 191.017 7.61816C194.793 7.61816 197.214 9.81165 197.019 14.1727C197.003 14.509 196.723 14.778 196.38 14.778H188.633V14.7832ZM193.332 12.4086C193.807 12.4086 194.123 11.912 193.902 11.5033C193.422 10.6083 192.414 10.1583 191.117 10.1583C189.925 10.1583 188.891 10.5876 188.274 11.4464C187.984 11.8499 188.301 12.4138 188.807 12.4138H193.332V12.4086Z" fill="#2D2E30"/>
<path d="M210.801 8.81809L206.312 19.2164C206.212 19.4492 205.98 19.5993 205.727 19.5993H203.412C203.159 19.5993 202.927 19.4492 202.826 19.2216L198.317 8.82326C198.138 8.4094 198.449 7.95415 198.903 7.95415H200.701C200.959 7.95415 201.191 8.10417 201.286 8.33697L202.753 11.7824L203.971 15.0571C204.176 15.6055 204.962 15.6055 205.168 15.0571L206.365 11.829L207.831 8.34214C207.932 8.10934 208.164 7.95415 208.422 7.95415H210.22C210.669 7.94897 210.98 8.40422 210.801 8.81809Z" fill="#2D2E30"/>
<path d="M216.016 14.7832C215.541 14.7832 215.219 15.285 215.446 15.6937C215.963 16.6301 217.081 17.2457 218.669 17.2457C219.565 17.2457 220.699 16.9663 221.437 16.48C221.685 16.3145 222.018 16.3507 222.228 16.5576L223.209 17.5095C223.489 17.7785 223.452 18.2234 223.141 18.4562C221.896 19.3978 220.166 19.853 218.616 19.853C214.55 19.853 212.129 17.3905 212.129 13.6761C212.129 10.1531 214.571 7.61816 218.4 7.61816C222.176 7.61816 224.596 9.81165 224.401 14.1727C224.385 14.509 224.106 14.778 223.763 14.778H216.016V14.7832ZM220.715 12.4086C221.19 12.4086 221.506 11.912 221.284 11.5033C220.805 10.6083 219.797 10.1583 218.5 10.1583C217.308 10.1583 216.274 10.5876 215.657 11.4464C215.367 11.8499 215.684 12.4138 216.19 12.4138H220.715V12.4086Z" fill="#2D2E30"/>
<path d="M229.944 3.76367V18.9266C229.944 19.2732 229.659 19.5526 229.305 19.5526H227.681C227.328 19.5526 227.043 19.2732 227.043 18.9266V3.76367C227.043 3.41705 227.328 3.1377 227.681 3.1377H229.305C229.659 3.1377 229.944 3.41705 229.944 3.76367Z" fill="#2D2E30"/>
<path d="M88.3004 33.7956H84.5665C84.4452 33.7956 84.3292 33.868 84.2817 33.9766L83.691 35.2751C83.6541 35.3579 83.5645 35.4148 83.4748 35.4148H83.2428C83.0687 35.4148 82.9527 35.2389 83.0265 35.0837L85.9957 28.5912C86.0485 28.4826 86.1592 28.4102 86.2805 28.4102H86.5864C86.7077 28.4102 86.8237 28.4826 86.8712 28.5912L89.8404 35.0837C89.909 35.2389 89.7982 35.4148 89.6242 35.4148H89.3921C89.2972 35.4148 89.2128 35.3579 89.1759 35.2751L88.5852 33.9766C88.5378 33.868 88.4217 33.7956 88.3004 33.7956ZM85.1308 33.1541H87.7414C87.9682 33.1541 88.1211 32.9265 88.0262 32.7247L86.7235 29.8121C86.6128 29.569 86.2594 29.569 86.1487 29.8121L84.846 32.7247C84.7511 32.9265 84.904 33.1541 85.1308 33.1541Z" fill="#2D2E30"/>
<path d="M99.3754 30.2822L99.4757 30.365C99.5759 30.4478 99.5917 30.5978 99.5073 30.6961L99.2911 30.9444C99.1961 31.0582 99.1961 31.2186 99.2858 31.3324C99.5811 31.6945 99.7921 32.1136 99.7921 32.7809C99.7921 33.4586 99.4967 34.157 98.885 34.5709C98.6951 34.7002 98.7057 34.9847 98.9061 35.0934C99.4598 35.3934 99.7604 35.8539 99.7604 36.4695C99.7604 37.7111 98.5052 38.3526 97.1709 38.3526C95.8366 38.3526 94.7766 37.7059 94.6342 36.5833C94.6184 36.4385 94.7238 36.3091 94.8715 36.3091H95.0772C95.1932 36.3091 95.2934 36.3919 95.3092 36.5005C95.42 37.3024 96.2744 37.6956 97.1657 37.6956C98.0939 37.6956 99.0643 37.3438 99.0643 36.4643C99.0643 35.5952 98.1044 35.202 97.1657 35.202C95.6151 35.202 94.5234 34.3122 94.5234 32.7706C94.5234 31.1617 95.8999 30.3391 97.1657 30.3391C97.5665 30.3391 98.0728 30.4374 98.4525 30.6185C98.5791 30.6806 98.732 30.6495 98.827 30.5409L99.0379 30.2977C99.1276 30.2098 99.2752 30.1994 99.3754 30.2822ZM95.2249 32.7809C95.2249 34.0018 96.0792 34.5916 97.1709 34.5916C98.3312 34.5916 99.1117 33.7587 99.1117 32.7809C99.1117 31.5497 98.1624 30.9806 97.1709 30.9806C96.248 30.9806 95.2249 31.5445 95.2249 32.7809Z" fill="#2D2E30"/>
<path d="M105.918 33.2259C105.713 33.2259 105.555 33.4173 105.613 33.6087C105.85 34.4054 106.578 34.8658 107.448 34.8658C107.986 34.8658 108.624 34.6796 109.009 34.333C109.099 34.2554 109.23 34.2605 109.32 34.3381L109.426 34.4313C109.531 34.5244 109.531 34.6848 109.426 34.7831C108.914 35.2642 108.149 35.5073 107.443 35.5073C105.945 35.5073 104.832 34.5192 104.832 32.9362C104.832 31.4566 105.913 30.3857 107.411 30.3857C108.83 30.3857 109.979 31.1824 109.937 32.9155C109.932 33.0862 109.795 33.2259 109.621 33.2259H105.918ZM108.93 32.6517C109.125 32.6517 109.278 32.4758 109.241 32.2843C109.062 31.4359 108.313 30.9807 107.427 30.9807C106.546 30.9807 105.866 31.4359 105.618 32.2637C105.56 32.4551 105.718 32.6517 105.924 32.6517H108.93Z" fill="#2D2E30"/>
<path d="M119.439 35.4156C119.307 35.4156 119.202 35.3121 119.202 35.1828V32.6479C119.202 31.5873 118.569 31.0286 117.562 31.0286C116.581 31.039 115.911 31.7787 115.911 32.7306V35.1879C115.911 35.3173 115.805 35.4207 115.673 35.4207H115.468C115.336 35.4207 115.23 35.3173 115.23 35.1879V30.713C115.23 30.5837 115.336 30.4802 115.468 30.4802H115.647C115.779 30.4802 115.884 30.5837 115.884 30.7079L115.9 31.308C116.317 30.6768 116.971 30.3975 117.656 30.3975C118.964 30.3975 119.898 31.1579 119.898 32.6375V35.1828C119.898 35.3121 119.792 35.4156 119.661 35.4156H119.439Z" fill="#2D2E30"/>
<path d="M129.495 34.5758C129.595 34.669 129.595 34.8345 129.485 34.9173C128.989 35.3104 128.403 35.5019 127.797 35.5019C126.357 35.5019 125.176 34.5603 125.176 32.9411C125.176 31.3322 126.331 30.3906 127.797 30.3906C128.388 30.3906 128.92 30.5665 129.4 30.9545C129.506 31.0425 129.506 31.2028 129.411 31.3011L129.3 31.4046C129.21 31.4874 129.073 31.4874 128.978 31.4149C128.63 31.1511 128.229 31.0218 127.807 31.0218C126.737 31.0218 125.861 31.7305 125.861 32.9411C125.861 34.1827 126.747 34.8604 127.797 34.8604C128.235 34.8604 128.678 34.7207 129.036 34.4413C129.137 34.3637 129.274 34.3637 129.358 34.4517L129.495 34.5758Z" fill="#2D2E30"/>
<path d="M139.091 30.8005L136.106 37.6345C136.069 37.7224 135.979 37.7741 135.884 37.7741H135.663C135.489 37.7741 135.372 37.6034 135.441 37.4482L136.306 35.472C136.338 35.3944 136.338 35.3117 136.306 35.2341L134.471 30.7954C134.407 30.6402 134.523 30.4746 134.692 30.4746H134.94C135.04 30.4746 135.13 30.5367 135.162 30.6246L136.174 33.2061L136.443 33.8942C136.549 34.1528 136.923 34.158 137.029 33.8942L137.303 33.2061L138.416 30.6195C138.452 30.5315 138.542 30.4746 138.637 30.4746H138.869C139.043 30.4746 139.159 30.6453 139.091 30.8005Z" fill="#2D2E30"/>
<path d="M38.1512 23.8871C36.1202 32.9392 29.0272 37.7003 21.6478 38.2213C13.331 38.8088 4.63931 34.0069 2.39477 23.8871C-0.839241 6.91705 19.7366 -4.11198 32.5216 7.27975C32.2977 7.58114 32.0841 7.89276 31.8758 8.20948C30.7405 9.81351 29.9802 11.3307 29.4594 12.7559C28.5325 11.6934 27.4128 10.7943 26.1681 10.1149V10.12C15.4766 4.26068 3.51965 16.291 9.97725 26.6814V26.7479C12.4978 30.8959 17.1639 32.7298 21.5853 32.2547C23.0539 32.1014 24.4965 31.6877 25.8192 31.0185C27.668 30.0887 29.298 28.6635 30.4645 26.7427V26.7581C33.7663 21.3738 30.7406 16.9704 35.3234 10.5696C41.0936 1.57367 55.1128 -0.178513 62.9973 7.32061C63.0807 7.39724 63.1692 7.47387 63.2525 7.5556C63.2577 7.56071 63.2682 7.57093 63.2786 7.57603L60.0081 12.9552C59.0447 11.8007 57.8521 10.825 56.5241 10.0945V10.1149C48.952 5.75744 38.7553 11.3256 38.4949 19.8822C38.4897 19.9843 38.4897 20.0865 38.4897 20.1938C38.4897 20.2755 38.4897 20.3521 38.4949 20.4339C38.4949 20.5769 38.4949 20.725 38.4897 20.8681C38.4584 21.9 38.3491 22.9063 38.1512 23.8871ZM17.4295 23.7186H27.4961C27.9857 22.61 28.1419 21.4913 28.2669 20.1376C28.2669 20.1325 28.2669 20.1274 28.2669 20.1223C28.2981 19.2487 28.3189 18.3701 28.4648 17.5119H21.1218L17.4295 23.7186ZM65.8408 11.5504L61.9037 17.9972C61.9298 18.1147 61.9558 18.2373 61.9714 18.3343C61.9766 18.365 61.9818 18.3905 61.987 18.4109C61.9922 18.4263 61.9922 18.4365 61.9922 18.4467V18.4518C61.9922 18.462 61.9975 18.4722 61.9975 18.4774C61.9975 18.4876 62.0027 18.4927 62.0027 18.4927C64.1222 30.196 48.9312 37.0719 41.1456 28.6022C40.3488 30.574 39.3125 32.3773 38.0522 33.9916C49.5353 43.9785 68.3561 35.8714 68.278 20.5054C68.2884 17.236 67.3979 14.1812 65.8408 11.5504Z" fill="url(#paint0_linear_350_1289)"/>
<defs>
<linearGradient id="paint0_linear_350_1289" x1="35.1717" y1="41.694" x2="35.1717" y2="3.51057" gradientUnits="userSpaceOnUse">
<stop stop-color="#123EF9"/>
<stop offset="0.1299" stop-color="#1146F9"/>
<stop offset="0.3262" stop-color="#0E5AFA"/>
<stop offset="0.5646" stop-color="#0A7CFC"/>
<stop offset="0.8336" stop-color="#04ABFE"/>
<stop offset="1" stop-color="#00CCFF"/>
</linearGradient>
</defs>
</svg>
